<?xml version="1.0" encoding="utf-8"?>
<!-- Generator: Adobe Illustrator 27.7.0, SVG Export Plug-In . SVG Version: 6.00 Build 0)  -->
<svg version="1.1" id="Layer_1" xmlns="http://www.w3.org/2000/svg" xmlns:xlink="http://www.w3.org/1999/xlink" x="0px" y="0px"
	 viewBox="-398.96 0 994.24 419.53" style="enable-background:new 0 0 994,24 419.53;" xml:space="preserve">
<style type="text/css">
	.st0{clip-path:url(#SVGID_00000067208258331317621030000010142020252370022529_);}
	.st1{clip-path:url(#SVGID_00000039844446851561188290000011556122275940802469_);fill:#00B1EB;}
</style>
<!--<g>
	<defs>
		<rect id="SVGID_1_" x="25.47" y="67.11" width="544.33" height="285.31"/>
	</defs>
	<clipPath id="SVGID_00000068667615725776115610000003698482408871634056_">
		<use xlink:href="#SVGID_1_"  style="overflow:visible;"/>
	</clipPath>
	<path style="clip-path:url(#SVGID_00000068667615725776115610000003698482408871634056_);" d="M388.13,302.43
		c0.67,2.78,1.75,5.27,3.23,7.49c1.48,2.22,3.41,4,5.79,5.34c2.38,1.34,5.28,2.01,8.69,2.01c3.41,0,6.3-0.67,8.69-2.01
		c2.38-1.34,4.31-3.12,5.79-5.34c1.48-2.22,2.56-4.71,3.24-7.49c0.67-2.77,1.01-5.63,1.01-8.56c0-3.07-0.34-6.03-1.01-8.91
		c-0.68-2.87-1.75-5.43-3.24-7.68c-1.48-2.26-3.41-4.05-5.79-5.39c-2.39-1.33-5.28-2-8.69-2c-3.41,0-6.31,0.67-8.69,2
		c-2.38,1.34-4.31,3.13-5.79,5.39c-1.48,2.25-2.56,4.81-3.23,7.68c-0.68,2.87-1.02,5.84-1.02,8.91
		C387.11,296.8,387.45,299.65,388.13,302.43 M374.27,279.32c1.54-4.46,3.76-8.37,6.66-11.69c2.9-3.33,6.45-5.94,10.67-7.83
		c4.21-1.89,8.96-2.84,14.24-2.84c5.34,0,10.1,0.95,14.29,2.84c4.18,1.89,7.72,4.51,10.62,7.83c2.89,3.33,5.12,7.23,6.66,11.69
		c1.55,4.47,2.32,9.32,2.32,14.54c0,5.09-0.77,9.84-2.32,14.25c-1.54,4.4-3.77,8.24-6.66,11.5c-2.9,3.26-6.44,5.83-10.62,7.68
		c-4.19,1.86-8.95,2.79-14.29,2.79c-5.28,0-10.03-0.93-14.24-2.79c-4.22-1.86-7.77-4.42-10.67-7.68c-2.9-3.26-5.12-7.1-6.66-11.5
		c-1.54-4.41-2.32-9.16-2.32-14.25C371.95,288.65,372.72,283.8,374.27,279.32 M337.7,316.57c1.48,0,2.89-0.14,4.25-0.44
		c1.35-0.29,2.54-0.78,3.57-1.47c1.03-0.69,1.85-1.61,2.46-2.79c0.61-1.18,0.92-2.68,0.92-4.51c0-3.59-1-6.15-2.99-7.68
		c-2-1.53-4.63-2.3-7.92-2.3h-16.51v19.18H337.7z M336.83,286.91c2.7,0,4.92-0.65,6.66-1.96c1.74-1.3,2.61-3.43,2.61-6.36
		c0-1.63-0.29-2.97-0.87-4.01c-0.58-1.04-1.35-1.86-2.32-2.45c-0.96-0.59-2.07-0.99-3.33-1.22c-1.25-0.23-2.56-0.34-3.91-0.34
		h-14.19v16.34H336.83z M338.76,258.62c3.28,0,6.27,0.29,8.98,0.88c2.7,0.59,5.02,1.55,6.95,2.89c1.93,1.34,3.43,3.12,4.49,5.34
		c1.06,2.22,1.59,4.96,1.59,8.22c0,3.52-0.79,6.46-2.37,8.81c-1.57,2.34-3.91,4.27-7,5.78c4.25,1.24,7.42,3.41,9.51,6.51
		c2.09,3.1,3.14,6.84,3.14,11.21c0,3.52-0.68,6.58-2.03,9.15c-1.35,2.58-3.17,4.69-5.46,6.32c-2.29,1.63-4.89,2.84-7.82,3.62
		c-2.93,0.78-5.93,1.18-9.03,1.18h-33.4v-69.89H338.76z M255.83,301.6l8.98-25.75H265l8.69,25.75H255.83z M258.63,246.98
		c0-1.89,0.55-3.51,1.64-4.85c1.09-1.33,2.57-2,4.44-2c1.87,0,3.36,0.67,4.49,2c1.12,1.34,1.69,2.96,1.69,4.85
		c0,1.89-0.57,3.51-1.69,4.85c-1.13,1.34-2.62,2.01-4.49,2.01c-1.87,0-3.35-0.67-4.44-2.01
		C259.18,250.48,258.63,248.87,258.63,246.98 M272.83,258.62h-5.5c0.7-0.15,1.38-0.35,2.03-0.64c1.41-0.62,2.67-1.47,3.77-2.55
		c1.09-1.08,1.95-2.35,2.56-3.82c0.61-1.46,0.92-3.02,0.92-4.65c0-1.7-0.31-3.26-0.92-4.7c-0.61-1.43-1.47-2.69-2.56-3.77
		c-1.1-1.08-2.35-1.93-3.77-2.54c-1.42-0.62-2.96-0.93-4.63-0.93c-1.61,0-3.14,0.31-4.59,0.93c-1.45,0.62-2.7,1.47-3.77,2.54
		c-1.06,1.08-1.9,2.33-2.51,3.77c-0.61,1.44-0.92,3-0.92,4.7c0,1.63,0.31,3.18,0.92,4.65c0.61,1.47,1.45,2.74,2.51,3.82
		c1.06,1.08,2.32,1.93,3.77,2.55c0.66,0.28,1.34,0.48,2.04,0.64h-4.88l-26.07,69.89h15.25l5.41-15.56h25.78l5.21,15.56h15.74
		L272.83,258.62z M569.81,200.5v-43.47h-15.16v43.47c0,5.22-1.03,9.05-3.09,11.5c-2.06,2.45-5.79,3.67-11.2,3.67
		c-3.09,0-5.55-0.44-7.39-1.32c-1.83-0.88-3.27-2.03-4.3-3.43c-1.03-1.4-1.71-3.02-2.03-4.85c-0.32-1.83-0.48-3.68-0.48-5.57v-43.47
		h-15.16v43.47c0,9.52,2.56,16.57,7.68,21.14c5.12,4.57,12.34,6.86,21.68,6.86c9.2,0,16.41-2.3,21.63-6.91
		C567.2,216.99,569.81,209.96,569.81,200.5 M441.59,157.04v69.89h15.16v-22.52l8.69-8.91l20.76,31.42h19.02l-29.54-42.28
		l26.93-27.61h-18.92l-26.93,28.98v-28.98H441.59z M387.69,188.66v-19.68h16.61c3.48,0,6.08,0.77,7.82,2.3
		c1.74,1.53,2.61,4,2.61,7.39c0,3.52-0.87,6.07-2.61,7.64c-1.74,1.56-4.34,2.35-7.82,2.35H387.69z M372.53,157.04v69.89h15.16
		v-27.31h15.16c3.8,0,6.54,0.85,8.21,2.55c1.67,1.7,2.76,4.37,3.28,8.02c0.39,2.81,0.68,5.75,0.87,8.81
		c0.19,3.07,0.71,5.72,1.54,7.93h15.16c-0.71-0.98-1.24-2.17-1.59-3.58c-0.35-1.4-0.61-2.89-0.77-4.45c-0.16-1.57-0.28-3.1-0.34-4.6
		c-0.06-1.51-0.13-2.81-0.19-3.92c-0.13-1.76-0.37-3.52-0.72-5.28c-0.35-1.76-0.92-3.38-1.69-4.85c-0.77-1.46-1.77-2.74-2.99-3.81
		c-1.22-1.08-2.77-1.88-4.63-2.4v-0.19c3.86-1.57,6.64-3.85,8.35-6.85c1.7-3,2.56-6.56,2.56-10.67c0-2.67-0.46-5.17-1.4-7.49
		c-0.93-2.31-2.29-4.36-4.05-6.11c-1.77-1.76-3.9-3.15-6.38-4.16c-2.48-1.01-5.26-1.52-8.35-1.52H372.53z M360.62,200.5v-43.47
		h-15.16v43.47c0,5.22-1.03,9.05-3.09,11.5c-2.06,2.45-5.79,3.67-11.2,3.67c-3.09,0-5.55-0.44-7.39-1.32
		c-1.83-0.88-3.27-2.03-4.3-3.43c-1.03-1.4-1.71-3.02-2.03-4.85c-0.32-1.83-0.48-3.68-0.48-5.57v-43.47h-15.16v43.47
		c0,9.52,2.56,16.57,7.67,21.14c5.12,4.57,12.35,6.86,21.68,6.86c9.2,0,16.41-2.3,21.63-6.91
		C358.01,216.99,360.62,209.96,360.62,200.5 M257.72,169.96v56.97h15.16v-56.97h20.66v-12.92h-56.48v12.92H257.72z M190.62,306.23
		c0,16.86-13.53,30.58-30.16,30.58h-26.1c-7.17,0-13.59,2.9-17.33,7.26c-3.74-4.35-10.16-7.25-17.33-7.25h-26.1
		c-16.63,0-30.16-13.72-30.16-30.58V159.31c0-1.23,0.99-2.23,2.2-2.23h71.41v0h71.39c1.21,0,2.2,1,2.2,2.23V306.23z M188.42,149.9
		h-71.41v0H45.63c-5.13,0-9.28,4.21-9.28,9.41v146.92c0,20.86,16.67,37.76,37.25,37.76h26.1c3.5,0,6.78,0.98,9.27,2.54
		c1.91,1.14,3.6,2.64,4.97,4.4c0.79,1.01,1.96,1.51,3.11,1.48v0c1.14,0.03,2.31-0.47,3.09-1.48c1.37-1.76,3.05-3.26,4.97-4.4
		c2.48-1.56,5.77-2.54,9.26-2.54h26.1c20.57,0,37.25-16.91,37.25-37.76V159.31C197.7,154.11,193.55,149.9,188.42,149.9
		 M180.42,247.75c-0.95,1.4-3.51,4.24-4.1,4.97c-1.8,2.22-1.34,3.47-0.93,3.97c1.05,1.26,2.76,0.19,2.76,0.19s-0.31,1.03-1.39,1.48
		c-1.8,0.75-2.8-0.14-3.43-0.81c-1.25-1.31-0.37-3.31,0.11-4.07c0.48-0.76,1.06-1.82,1.38-2.38c1.02-1.77,0.22-3.9-0.76-4.79
		c-1.74-1.59-3.66-0.3-4.62,1.25c-1.41,2.27-2.11,5.32-2.11,5.32s-0.21-0.08-0.41-0.14c-0.22-0.07-0.44-0.11-0.44-0.11
		s0.39-1.9,0.74-3.28c0.44-1.76,1.33-4.28,1.94-5.56c1.79-3.75,4.42-4.82,5.56-5.31c2.46-1.06,4.76,0.34,5.72,1.8
		C182.47,243.36,181.18,246.65,180.42,247.75 M173.92,233.23c0,0-0.25,0.87-0.46,1.89c-0.21,1.02-0.33,2.22-0.33,2.22
		s-1.15,0.48-2.1,1.36c-0.96,0.9-2.08,2.49-2.08,2.49s0.49-1.71,0.72-3.18c0.21-1.29,0.2-3.19,0.2-3.19s0.52-0.63,1.7-1.15
		C172.79,233.12,173.92,233.23,173.92,233.23 M166.89,244.39c-0.35,1.59-1.76,8.18-1.76,8.18s-1.4-6.59-1.75-8.18
		c-1.42-6.35-1.45-9.46-0.8-12.77c0.48-2.41,2.55-5.17,2.55-5.17s2.08,2.76,2.55,5.17C168.33,234.93,168.31,238.04,166.89,244.39
		 M166.38,292.43c0,0-0.27,0.69-3.67,1.56c-3.66,0.94-4.85-3-5.16-3.9c-1.33-3.89-3.93-4.29-6.14-5.1c-2.2-0.8-8.78-2.63-9.92-2.96
		c-3.45-0.99-3.11-2-2.79-2.54c0.61-1.02,3.1,0.13,4.73,0.67c2.55,0.84,4.26,1.13,5.59,0.97c2.51-0.31,2.86-3.24,2.21-5.26
		c-0.52-1.61-16.59-46.68-16.59-46.68h4.45c0,0,1.65-6.73,2.7-9.54c2.67-7.15,5.22-9.84,6.08-10.4c4.13-2.72,5.37,0.01,5.61,0.75
		c0.85,2.61-0.74,3.98-0.74,3.98s0.72,0.3,1.44,0.32c1.25,0.04,2.26-0.58,3.12-1.52c2.24-2.44,0.21-5.54,0.21-5.54
		s3.02-0.5,4.3-4.71c1.58-5.18-3.93-8.97-3.93-8.97s0.24,0.36-0.17,2.87c-0.41,2.51-4.69,3.61-6.73,4.13
		c-4.75,1.2-8.19,4.75-10.22,7.12c-2.43,2.87-4.44,9.47-4.44,9.47h-19.31h-0.01H97.71c0,0-2-6.6-4.44-9.47
		c-2.02-2.38-5.47-5.93-10.22-7.12c-2.04-0.52-6.32-1.62-6.73-4.13c-0.41-2.51-0.17-2.87-0.17-2.87s-5.5,3.79-3.92,8.97
		c1.28,4.21,4.3,4.71,4.3,4.71s-2.03,3.1,0.21,5.54c0.86,0.94,1.87,1.56,3.12,1.52c0.72-0.02,1.44-0.32,1.44-0.32
		s-1.58-1.37-0.74-3.98c0.24-0.74,1.48-3.47,5.62-0.75c0.86,0.56,3.41,3.25,6.08,10.4c1.05,2.82,2.7,9.54,2.7,9.54h4.45
		c0,0-16.07,45.07-16.59,46.68c-0.66,2.01-0.3,4.95,2.21,5.26c1.33,0.16,3.04-0.14,5.59-0.97c1.63-0.54,4.12-1.69,4.73-0.67
		c0.32,0.54,0.66,1.55-2.79,2.54c-1.14,0.33-7.72,2.16-9.92,2.96c-2.2,0.8-4.8,1.2-6.14,5.1c-0.31,0.9-1.49,4.84-5.15,3.9
		c-3.4-0.87-3.67-1.56-3.67-1.56s2.11,5.34,5.27,6.96c6.04,3.1,9.86-1.89,9.86-1.89s1.58,1.81,4.82,1.07c1.22-0.28,2.35-1.08,3.03-2
		c0.35-0.47,0.62-1.09,0.62-1.09s-3.33,0.06-3.99-1.62c-0.36-0.91-0.32-2.21,2.93-4.33c1.04-0.68,6.02-3.49,8.08-4.9
		c2.12-1.45,4.96-3.62,3.62-6.33c-1.07-2.15-3.23-2.97-3.23-2.97l8.27-31.84l10.06,16.75h0.01l10.06-16.75l8.27,31.84
		c0,0-2.16,0.82-3.23,2.97c-1.34,2.7,1.51,4.87,3.62,6.33c2.06,1.41,7.04,4.23,8.08,4.9c3.26,2.12,3.3,3.42,2.94,4.33
		c-0.66,1.68-3.99,1.62-3.99,1.62s0.27,0.62,0.62,1.09c0.68,0.92,1.81,1.73,3.03,2c3.24,0.75,4.82-1.07,4.82-1.07
		s3.82,4.99,9.86,1.89C164.27,297.76,166.38,292.43,166.38,292.43 M126.81,227.81l-9.78,17.33h-0.01l-9.78-17.33h9.78h0.01H126.81z
		 M132.31,183.97c-0.95,1.4-3.51,4.24-4.11,4.97c-1.8,2.23-1.34,3.47-0.92,3.97c1.05,1.26,2.76,0.19,2.76,0.19s-0.31,1.03-1.39,1.48
		c-1.8,0.75-2.8-0.14-3.43-0.81c-1.25-1.31-0.37-3.31,0.11-4.07c0.49-0.77,1.06-1.82,1.38-2.38c1.02-1.77,0.22-3.9-0.75-4.8
		c-1.74-1.59-3.66-0.3-4.62,1.26c-1.41,2.27-2.11,5.31-2.11,5.31s-0.21-0.08-0.41-0.14c-0.22-0.07-0.44-0.11-0.44-0.11
		s0.39-1.9,0.74-3.28c0.44-1.76,1.33-4.28,1.94-5.56c1.79-3.75,4.43-4.82,5.56-5.31c2.46-1.06,4.76,0.34,5.72,1.8
		C134.36,179.58,133.07,182.87,132.31,183.97 M118.78,180.61c-0.35,1.59-1.76,8.18-1.76,8.18s-1.4-6.59-1.76-8.18
		c-1.42-6.35-1.45-9.46-0.8-12.77c0.47-2.4,2.55-5.17,2.55-5.17s2.08,2.76,2.55,5.17C120.22,171.15,120.2,174.26,118.78,180.61
		 M112.77,203.68c-1.27,1.54-2.29,1.79-2.98,1.79c-1.17,0-2.28-1.49-2.6-1.92c-0.32-0.42-1.07-1.96-2.05-2.11
		c-0.92-0.14-1.35,0.84-1.35,0.84s-0.17-0.55-0.19-0.82c-0.08-0.77,0.34-1.15,0.76-1.32c1.31-0.53,3.07,1.02,3.38,1.26
		c1.78,1.41,3.29,0.64,4.43-0.18c2.12-1.52,2.15-4.39,2.15-4.39l0.83,0.23c0,0,0.11,1.36-0.18,2.53
		C114.47,201.62,113.17,203.21,112.77,203.68 M120.05,204.1c0,0-0.39,1.62-1.06,2.83c-0.81,1.45-1.96,2.79-1.96,2.79
		s-1.15-1.34-1.96-2.79c-0.68-1.21-1.06-2.83-1.06-2.83s0.95-0.99,1.65-2.53c1-2.21,0.73-4.41,0.73-4.41s0.19,0.01,0.34,0.01
		c0.15,0,0.32,0.01,0.32,0.01s0.17-0.01,0.32-0.01c0.15,0,0.33-0.01,0.33-0.01s-0.27,2.2,0.73,4.41
		C119.1,203.11,120.05,204.1,120.05,204.1 M117.02,195.55c-2.2,0-3.98-1.24-3.98-2.76s1.78-2.76,3.98-2.76
		c2.19,0,3.98,1.23,3.98,2.76S119.22,195.55,117.02,195.55 M121.88,201.24c1.14,0.82,2.66,1.59,4.43,0.18
		c0.31-0.24,2.06-1.79,3.37-1.26c0.41,0.16,0.83,0.55,0.76,1.32c-0.02,0.27-0.2,0.82-0.2,0.82s-0.43-0.98-1.35-0.84
		c-0.98,0.15-1.73,1.68-2.05,2.11c-0.32,0.43-1.43,1.92-2.6,1.92c-0.69,0-1.7-0.25-2.98-1.79c-0.39-0.48-1.69-2.07-2.19-4.09
		c-0.29-1.17-0.18-2.53-0.18-2.53l0.83-0.23C119.73,196.84,119.76,199.71,121.88,201.24 M107.44,174.69
		c1.14,0.49,3.77,1.56,5.56,5.31c0.61,1.28,1.51,3.8,1.95,5.56c0.34,1.38,0.73,3.28,0.73,3.28s-0.22,0.04-0.44,0.11
		c-0.2,0.06-0.41,0.14-0.41,0.14s-0.7-3.04-2.11-5.31c-0.96-1.55-2.87-2.84-4.62-1.26c-0.97,0.89-1.77,3.02-0.75,4.8
		c0.32,0.56,0.89,1.62,1.38,2.38c0.49,0.76,1.36,2.75,0.11,4.07c-0.63,0.66-1.63,1.55-3.43,0.81c-1.09-0.45-1.39-1.48-1.39-1.48
		s1.71,1.07,2.76-0.19c0.42-0.5,0.88-1.75-0.93-3.97c-0.59-0.73-3.15-3.57-4.1-4.97c-0.75-1.1-2.05-4.39-0.02-7.48
		C102.67,175.03,104.97,173.63,107.44,174.69 M70.67,244.39c-0.35,1.59-1.76,8.18-1.76,8.18s-1.4-6.59-1.75-8.18
		c-1.42-6.35-1.45-9.46-0.79-12.77c0.47-2.41,2.55-5.17,2.55-5.17s2.08,2.76,2.55,5.17C72.11,234.93,72.09,238.04,70.67,244.39
		 M65.1,241.19c0,0-1.12-1.59-2.08-2.49c-0.94-0.89-2.09-1.36-2.09-1.36s-0.13-1.2-0.34-2.22c-0.21-1.02-0.47-1.89-0.47-1.89
		s1.13-0.11,2.36,0.43c1.18,0.52,1.7,1.15,1.7,1.15s0,1.9,0.2,3.19C64.61,239.48,65.1,241.19,65.1,241.19 M59.33,238.47
		c1.14,0.49,3.77,1.56,5.56,5.31c0.61,1.28,1.51,3.8,1.94,5.56c0.34,1.38,0.74,3.28,0.74,3.28s-0.22,0.05-0.44,0.11
		c-0.2,0.06-0.41,0.14-0.41,0.14s-0.7-3.05-2.11-5.32c-0.96-1.55-2.88-2.84-4.62-1.25c-0.98,0.89-1.78,3.02-0.76,4.79
		c0.32,0.56,0.89,1.62,1.38,2.38c0.49,0.76,1.36,2.76,0.11,4.07c-0.64,0.66-1.64,1.55-3.43,0.81c-1.09-0.45-1.4-1.48-1.4-1.48
		s1.71,1.06,2.76-0.19c0.42-0.5,0.88-1.75-0.92-3.97c-0.59-0.73-3.15-3.58-4.11-4.97c-0.75-1.1-2.04-4.39-0.02-7.48
		C54.56,238.81,56.87,237.41,59.33,238.47 M55.49,265.25c-0.07-0.78,0.34-1.15,0.76-1.32c1.31-0.53,3.07,1.02,3.37,1.26
		c1.78,1.42,3.3,0.64,4.43-0.17c2.13-1.53,2.15-4.4,2.15-4.4l0.83,0.23c0,0,0.11,1.36-0.18,2.53c-0.5,2.02-1.8,3.61-2.2,4.09
		c-1.27,1.54-2.29,1.79-2.98,1.79c-1.17,0-2.28-1.49-2.6-1.92c-0.32-0.42-1.08-1.96-2.05-2.11c-0.92-0.14-1.36,0.84-1.36,0.84
		S55.52,265.52,55.49,265.25 M82.34,265.25c-0.03,0.27-0.19,0.82-0.19,0.82s-0.44-0.98-1.35-0.84c-0.98,0.15-1.73,1.68-2.05,2.11
		c-0.32,0.43-1.43,1.92-2.6,1.92c-0.69,0-1.7-0.25-2.98-1.79c-0.39-0.48-1.69-2.07-2.19-4.09c-0.29-1.17-0.18-2.53-0.18-2.53
		l0.83-0.23c0,0,0.02,2.87,2.15,4.4c1.14,0.82,2.66,1.59,4.43,0.17c0.31-0.24,2.06-1.79,3.38-1.26
		C82,264.1,82.41,264.47,82.34,265.25 M72.89,256.57c0,1.52-1.78,2.75-3.97,2.75c-2.19,0-3.97-1.23-3.97-2.75
		c0-1.53,1.78-2.76,3.97-2.76C71.11,253.81,72.89,255.04,72.89,256.57 M77.24,235.12c-0.21,1.02-0.34,2.22-0.34,2.22
		s-1.15,0.48-2.09,1.36c-0.96,0.9-2.08,2.49-2.08,2.49s0.49-1.71,0.72-3.18c0.2-1.29,0.2-3.19,0.2-3.19s0.52-0.63,1.7-1.15
		c1.23-0.54,2.35-0.43,2.35-0.43S77.44,234.11,77.24,235.12 M78.5,238.47c2.46-1.06,4.76,0.34,5.72,1.8
		c2.03,3.09,0.74,6.38-0.01,7.48c-0.95,1.4-3.51,4.24-4.11,4.97c-1.8,2.22-1.34,3.47-0.92,3.97c1.05,1.26,2.76,0.19,2.76,0.19
		s-0.31,1.03-1.4,1.48c-1.8,0.75-2.8-0.14-3.43-0.81c-1.25-1.31-0.37-3.31,0.11-4.07c0.49-0.76,1.06-1.82,1.38-2.38
		c1.01-1.77,0.22-3.9-0.76-4.79c-1.74-1.59-3.65-0.3-4.61,1.25c-1.41,2.27-2.11,5.32-2.11,5.32s-0.21-0.08-0.41-0.14
		c-0.23-0.07-0.44-0.11-0.44-0.11s0.39-1.9,0.74-3.28c0.44-1.76,1.33-4.28,1.94-5.56C74.73,240.03,77.36,238.96,78.5,238.47
		 M65.89,267.88c0,0,0.95-1,1.65-2.53c1-2.22,0.73-4.41,0.73-4.41s0.19,0.01,0.33,0.01c0.15,0,0.32,0.01,0.32,0.01
		s0.17-0.01,0.32-0.01c0.14,0,0.33-0.01,0.33-0.01s-0.27,2.2,0.73,4.41c0.7,1.54,1.65,2.53,1.65,2.53s-0.38,1.62-1.06,2.84
		c-0.82,1.45-1.97,2.79-1.97,2.79s-1.15-1.34-1.96-2.79C66.27,269.51,65.89,267.88,65.89,267.88 M111.13,293.72
		c-0.94-0.88-2.1-1.36-2.1-1.36s-0.13-1.2-0.34-2.22c-0.21-1.01-0.46-1.89-0.46-1.89s1.13-0.11,2.35,0.43
		c1.18,0.52,1.7,1.15,1.7,1.15s-0.01,1.9,0.2,3.19c0.23,1.47,0.73,3.18,0.73,3.18S112.09,294.63,111.13,293.72 M101.72,295.29
		c0.96-1.46,3.26-2.86,5.72-1.8c1.14,0.49,3.77,1.56,5.56,5.31c0.61,1.28,1.51,3.8,1.95,5.56c0.34,1.38,0.73,3.28,0.73,3.28
		s-0.22,0.05-0.44,0.11c-0.2,0.06-0.41,0.15-0.41,0.15s-0.7-3.05-2.11-5.32c-0.96-1.55-2.87-2.84-4.62-1.25
		c-0.97,0.89-1.77,3.03-0.75,4.8c0.32,0.56,0.89,1.62,1.38,2.38c0.49,0.76,1.36,2.76,0.11,4.07c-0.63,0.66-1.63,1.55-3.43,0.81
		c-1.09-0.45-1.39-1.48-1.39-1.48s1.71,1.07,2.76-0.19c0.42-0.5,0.88-1.75-0.93-3.97c-0.59-0.73-3.15-3.57-4.1-4.97
		C100.98,301.67,99.69,298.38,101.72,295.29 M103.6,320.27c-0.08-0.77,0.34-1.15,0.76-1.32c1.31-0.52,3.07,1.02,3.38,1.26
		c1.78,1.42,3.29,0.64,4.43-0.17c2.12-1.53,2.15-4.4,2.15-4.4l0.83,0.23c0,0,0.11,1.36-0.18,2.53c-0.5,2.02-1.8,3.61-2.19,4.09
		c-1.27,1.54-2.29,1.79-2.98,1.79c-1.17,0-2.28-1.49-2.6-1.91c-0.32-0.43-1.07-1.96-2.05-2.11c-0.92-0.14-1.35,0.84-1.35,0.84
		S103.62,320.55,103.6,320.27 M114,322.9c0,0,0.95-0.99,1.65-2.53c1-2.22,0.73-4.42,0.73-4.42s0.19,0.01,0.34,0.01
		c0.15,0,0.32,0.01,0.32,0.01s0.17-0.01,0.32-0.01c0.15,0,0.33-0.01,0.33-0.01s-0.27,2.2,0.73,4.42c0.7,1.54,1.65,2.53,1.65,2.53
		s-0.39,1.63-1.06,2.83c-0.81,1.46-1.96,2.8-1.96,2.8s-1.15-1.34-1.96-2.8C114.38,324.53,114,322.9,114,322.9 M121.28,322.49
		c-0.4-0.48-1.69-2.07-2.19-4.09c-0.29-1.17-0.18-2.53-0.18-2.53l0.83-0.23c0,0,0.02,2.87,2.15,4.4c1.14,0.82,2.66,1.59,4.43,0.17
		c0.31-0.24,2.06-1.79,3.37-1.26c0.41,0.17,0.83,0.55,0.76,1.32c-0.02,0.27-0.2,0.82-0.2,0.82s-0.43-0.98-1.35-0.84
		c-0.98,0.15-1.73,1.68-2.05,2.11c-0.32,0.42-1.43,1.91-2.6,1.91C123.56,324.27,122.55,324.03,121.28,322.49 M117.02,308.83
		c2.19,0,3.98,1.24,3.98,2.76c0,1.52-1.78,2.76-3.98,2.76c-2.2,0-3.98-1.23-3.98-2.76C113.05,310.07,114.83,308.83,117.02,308.83
		 M117.02,307.59c0,0-1.4-6.59-1.76-8.18c-1.42-6.35-1.45-9.46-0.8-12.77c0.47-2.41,2.55-5.17,2.55-5.17s2.08,2.76,2.55,5.17
		c0.65,3.31,0.62,6.41-0.8,12.77C118.42,301,117.02,307.59,117.02,307.59 M125.34,290.14c-0.21,1.02-0.34,2.22-0.34,2.22
		s-1.16,0.48-2.1,1.36c-0.95,0.9-2.08,2.49-2.08,2.49s0.49-1.71,0.73-3.18c0.2-1.3,0.2-3.19,0.2-3.19s0.51-0.63,1.69-1.15
		c1.23-0.54,2.35-0.43,2.35-0.43S125.55,289.13,125.34,290.14 M132.31,302.77c-0.95,1.4-3.51,4.24-4.11,4.97
		c-1.8,2.22-1.34,3.47-0.92,3.97c1.05,1.26,2.76,0.19,2.76,0.19s-0.31,1.03-1.39,1.48c-1.8,0.75-2.8-0.15-3.43-0.81
		c-1.25-1.31-0.37-3.31,0.11-4.07c0.49-0.76,1.06-1.82,1.38-2.38c1.02-1.77,0.22-3.91-0.75-4.8c-1.74-1.59-3.66-0.3-4.62,1.25
		c-1.41,2.28-2.11,5.32-2.11,5.32s-0.21-0.09-0.41-0.15c-0.22-0.07-0.44-0.11-0.44-0.11s0.39-1.9,0.74-3.28
		c0.44-1.76,1.33-4.28,1.94-5.56c1.79-3.75,4.43-4.82,5.56-5.31c2.46-1.06,4.76,0.34,5.72,1.8
		C134.36,298.38,133.07,301.67,132.31,302.77 M167.1,270.72c-0.82,1.45-1.96,2.79-1.96,2.79s-1.15-1.34-1.96-2.79
		c-0.68-1.21-1.06-2.84-1.06-2.84s0.95-1,1.65-2.53c1.01-2.22,0.73-4.41,0.73-4.41s0.19,0.01,0.33,0.01c0.15,0,0.32,0.01,0.32,0.01
		s0.17-0.01,0.32-0.01c0.15,0,0.34-0.01,0.34-0.01s-0.27,2.2,0.73,4.41c0.7,1.54,1.65,2.53,1.65,2.53S167.78,269.51,167.1,270.72
		 M165.13,253.81c2.19,0,3.98,1.23,3.98,2.76c0,1.52-1.78,2.75-3.98,2.75c-2.2,0-3.98-1.23-3.98-2.75
		C161.16,255.04,162.94,253.81,165.13,253.81 M152.47,263.93c1.31-0.53,3.07,1.02,3.38,1.26c1.77,1.42,3.29,0.64,4.43-0.17
		c2.12-1.53,2.15-4.4,2.15-4.4l0.83,0.23c0,0,0.11,1.36-0.18,2.53c-0.5,2.02-1.8,3.61-2.19,4.09c-1.27,1.54-2.29,1.79-2.98,1.79
		c-1.17,0-2.28-1.49-2.6-1.92c-0.32-0.42-1.07-1.96-2.05-2.11c-0.91-0.14-1.35,0.84-1.35,0.84s-0.17-0.55-0.19-0.82
		C151.63,264.47,152.05,264.1,152.47,263.93 M159.24,238.7c-0.95-0.89-2.1-1.36-2.1-1.36s-0.12-1.2-0.34-2.22
		c-0.21-1.02-0.46-1.89-0.46-1.89s1.12-0.11,2.35,0.43c1.18,0.52,1.7,1.15,1.7,1.15s0,1.9,0.2,3.19c0.23,1.47,0.72,3.18,0.72,3.18
		S160.2,239.6,159.24,238.7 M163.05,249.34c0.34,1.38,0.74,3.28,0.74,3.28s-0.22,0.05-0.44,0.11c-0.2,0.06-0.41,0.14-0.41,0.14
		s-0.7-3.04-2.11-5.32c-0.96-1.55-2.87-2.84-4.62-1.25c-0.97,0.89-1.77,3.02-0.75,4.79c0.32,0.56,0.89,1.62,1.38,2.38
		c0.49,0.76,1.36,2.76,0.11,4.07c-0.63,0.66-1.63,1.55-3.43,0.81c-1.09-0.45-1.39-1.48-1.39-1.48s1.71,1.06,2.76-0.19
		c0.42-0.5,0.88-1.75-0.92-3.97c-0.59-0.73-3.15-3.58-4.1-4.97c-0.76-1.1-2.05-4.39-0.02-7.48c0.96-1.46,3.25-2.86,5.72-1.8
		c1.14,0.49,3.77,1.56,5.56,5.31C161.72,245.06,162.61,247.58,163.05,249.34 M169.38,267.46c-0.4-0.48-1.69-2.07-2.2-4.09
		c-0.29-1.17-0.18-2.53-0.18-2.53l0.83-0.23c0,0,0.02,2.87,2.14,4.4c1.14,0.82,2.66,1.59,4.44,0.17c0.31-0.24,2.06-1.79,3.37-1.26
		c0.41,0.17,0.83,0.54,0.76,1.32c-0.02,0.27-0.19,0.82-0.19,0.82s-0.44-0.98-1.35-0.84c-0.97,0.15-1.73,1.68-2.05,2.11
		c-0.32,0.43-1.43,1.92-2.6,1.92C171.67,269.25,170.66,269,169.38,267.46 M125.81,169.45c0,0-0.25,0.87-0.46,1.89
		c-0.21,1.02-0.34,2.21-0.34,2.21s-1.16,0.48-2.1,1.37c-0.95,0.9-2.08,2.49-2.08,2.49s0.49-1.71,0.73-3.18
		c0.2-1.3,0.2-3.19,0.2-3.19s0.52-0.63,1.69-1.15C124.68,169.34,125.81,169.45,125.81,169.45 M113.22,177.41
		c0,0-1.12-1.59-2.08-2.49c-0.94-0.89-2.1-1.36-2.1-1.36s-0.13-1.2-0.33-2.22c-0.21-1.02-0.46-1.89-0.46-1.89s1.13-0.11,2.35,0.43
		c1.18,0.52,1.7,1.15,1.7,1.15s-0.01,1.9,0.2,3.19C112.72,175.7,113.22,177.41,113.22,177.41 M193.74,99.23
		c0.54-0.16,1.09-0.15,1.6,0.06c1.72,0.71,2.37,3.44,1.47,6.09c-0.68,1.99-2.05,3.38-3.42,3.64l-7.1,15.85h0.13
		c3.45,0,6.25,2.83,6.26,6.33v-0.02v0.04v-0.02c-0.01,3.5-2.81,6.33-6.26,6.33H47.63c-3.45,0-6.25-2.83-6.26-6.33
		c0,0.01,0,0.01,0,0.02v-0.04c0,0.01,0,0.01,0,0.02c0.01-3.5,2.81-6.33,6.26-6.33h0.14l-7.11-15.85c-1.36-0.26-2.73-1.65-3.41-3.64
		c-0.91-2.65-0.25-5.38,1.47-6.09c0.4-0.17,0.82-0.21,1.24-0.14c-0.58-14.07-1.08-19.96-8.66-22.62c6.62-4.24,12.55-3.18,16.03,5.3
		c1.05-2.12,1.39-3.18,3.49-4.24c1.74,7.77-0.35,13.78-5.23,20.14c5.23-5.3,12.2-7.07,18.12-7.07c0,1.06-0.35,2.47-1.74,3.53
		c4.53,3.53,6.27,5.3,8.02,8.83c-1.74,3.53-3.49,5.3-8.02,8.83c1.39,1.06,1.74,2.47,1.74,3.53c-5.92,0-12.89-1.77-18.12-7.07
		C48.02,114.35,56.03,120,59.52,120c2.95,0,10.88-4.55,16.42-12.36c-1.7-0.97-2.85-2.83-2.85-4.95c0-3.35,2.86-6.02,6.24-5.65
		c2.6,0.29,4.7,2.45,4.94,5.09c0.22,2.36-0.98,4.45-2.83,5.51C86.98,115.45,94.91,120,97.86,120c3.49,0,12.2-4.59,13.94-11.66
		c-5.23,5.3-12.2,7.07-18.12,7.07c0-1.06,0.35-2.47,1.74-3.53c-4.53-3.53-6.27-5.3-8.02-8.83c1.74-3.53,3.49-5.3,8.02-8.83
		c-1.39-1.06-1.74-2.47-1.74-3.53c5.93,0,12.9,1.77,18.12,7.07c-5.23-5.3-6.97-12.37-6.97-18.37c1.04,0,2.44,0.35,3.48,1.77
		c3.49-4.59,5.23-6.36,8.71-8.13c3.48,1.77,5.23,3.53,8.71,8.13c1.05-1.41,2.44-1.77,3.49-1.77c0,6.01-1.74,13.07-6.97,18.37
		c5.23-5.3,12.2-7.07,18.12-7.07c0,1.06-0.35,2.47-1.74,3.53c4.53,3.53,6.27,5.3,8.02,8.83c-1.74,3.53-3.49,5.3-8.02,8.83
		c1.39,1.06,1.74,2.47,1.74,3.53c-5.93,0-12.9-1.77-18.12-7.07C124,115.4,132.71,120,136.19,120c2.95,0,10.88-4.55,16.42-12.36
		c-1.71-0.97-2.85-2.83-2.85-4.95c0-3.35,2.86-6.02,6.24-5.65c2.6,0.29,4.7,2.45,4.95,5.09c0.22,2.36-0.98,4.45-2.83,5.51
		c5.54,7.81,13.47,12.36,16.42,12.36c3.49,0,11.5-5.65,13.94-11.66c-5.23,5.3-12.2,7.07-18.12,7.07c0-1.06,0.35-2.47,1.74-3.53
		c-4.53-3.53-6.27-5.3-8.02-8.83c1.74-3.53,3.48-5.3,8.02-8.83c-1.39-1.06-1.74-2.47-1.74-3.53c5.92,0,12.89,1.77,18.12,7.07
		c-4.88-6.36-6.97-12.37-5.23-20.14c2.09,1.06,2.44,2.12,3.49,4.24c3.49-8.48,9.41-9.54,16.03-5.3
		C195.16,79.2,193.93,85.1,193.74,99.23 M205.86,71.55c-3.45-2.21-6.86-3.33-10.12-3.33c-2.45,0-6.31,0.67-9.8,4.16
		c-0.03-0.02-0.07-0.04-0.1-0.05c-1.6-0.81-3.47-0.83-5.09-0.06c-1.61,0.77-2.79,2.26-3.18,4.02c-0.71,3.17-0.93,6.17-0.64,9.11
		c-2.12-0.41-4.33-0.62-6.59-0.62c-3.21,0-5.81,2.64-5.81,5.89c0,0.69,0.07,1.36,0.19,2.02c-0.57,0.51-1.1,1.02-1.59,1.53
		c-1.75-1.65-4.01-2.76-6.51-3.04c-0.42-0.05-0.85-0.07-1.27-0.07c-3,0-5.74,1.18-7.78,3.11c-0.49-0.51-1.02-1.02-1.59-1.53
		c0.13-0.66,0.19-1.33,0.19-2.02c0-3.25-2.6-5.89-5.81-5.89c-1.99,0-3.93,0.16-5.81,0.48c0.31-1.91,0.47-3.88,0.47-5.89
		c0-3.25-2.6-5.89-5.81-5.89c-0.68,0-1.34,0.07-1.99,0.19c-2.28-2.6-4.39-4.3-7.61-5.93c-1.64-0.83-3.56-0.83-5.2,0
		c-3.22,1.63-5.33,3.33-7.61,5.93c-0.65-0.13-1.31-0.19-1.99-0.19c-3.21,0-5.81,2.64-5.81,5.89c0,2.01,0.16,3.98,0.47,5.89
		c-1.88-0.32-3.83-0.48-5.81-0.48c-3.21,0-5.81,2.64-5.81,5.89c0,0.69,0.07,1.36,0.19,2.02c-0.57,0.51-1.1,1.02-1.59,1.53
		c-1.75-1.65-4.01-2.76-6.51-3.04c-0.42-0.05-0.85-0.07-1.27-0.07c-3,0-5.74,1.18-7.78,3.11c-0.49-0.51-1.02-1.02-1.59-1.53
		c0.13-0.66,0.19-1.33,0.19-2.02c0-3.25-2.6-5.89-5.81-5.89c-2.26,0-4.46,0.21-6.59,0.62c0.29-2.93,0.07-5.94-0.64-9.11
		c-0.4-1.76-1.57-3.25-3.18-4.02c-1.61-0.77-3.49-0.75-5.09,0.06c-0.03,0.02-0.07,0.03-0.1,0.05c-3.49-3.49-7.35-4.16-9.8-4.16
		c-3.26,0-6.67,1.12-10.12,3.33c-1.89,1.21-2.93,3.41-2.67,5.66c0.26,2.25,1.76,4.15,3.87,4.89c3.1,1.09,4,2.42,4.58,13.4
		c-2.8,2.67-3.77,7.26-2.21,11.82c0.89,2.61,2.5,4.75,4.49,6.09l3.74,8.35c-2.63,2.2-4.34,5.51-4.43,9.22c0,0.06,0,0.13,0,0.19v0.04
		c0,0.03,0,0.07,0,0.1c0.08,6.68,5.47,12.09,12.07,12.09h138.79c6.6,0,12-5.42,12.07-12.15c0-0.03,0-0.06,0-0.09
		c0-0.03,0-0.07,0-0.1c-0.04-3.75-1.76-7.1-4.43-9.31l3.74-8.35c1.99-1.35,3.6-3.49,4.49-6.1c1.63-4.78,0.49-9.6-2.64-12.2
		c0.45-10.89,2.04-11.98,5.01-13.02c2.11-0.74,3.61-2.64,3.87-4.89C208.79,74.96,207.75,72.76,205.86,71.55"/>
</g>-->
<g>
	<defs>
		<rect id="SVGID_00000154418721983039944800000004492287487395274158_" x="25.47" y="67.11" width="544.33" height="285.31"/>
	</defs>
	<clipPath id="SVGID_00000062157686189581632980000010403533514769390479_">
		<use xlink:href="#SVGID_00000154418721983039944800000004492287487395274158_"  style="overflow:visible;"/>
	</clipPath>
	<path style="clip-path:url(#SVGID_00000062157686189581632980000010403533514769390479_);fill:#00B1EB;" d="M388.13,302.43
		c0.67,2.78,1.75,5.27,3.23,7.49c1.48,2.22,3.41,4,5.79,5.34c2.38,1.34,5.28,2.01,8.69,2.01c3.41,0,6.3-0.67,8.69-2.01
		c2.38-1.34,4.31-3.12,5.79-5.34c1.48-2.22,2.56-4.71,3.24-7.49c0.67-2.77,1.01-5.63,1.01-8.56c0-3.07-0.34-6.03-1.01-8.91
		c-0.68-2.87-1.75-5.43-3.24-7.68c-1.48-2.26-3.41-4.05-5.79-5.39c-2.39-1.33-5.28-2-8.69-2c-3.41,0-6.31,0.67-8.69,2
		c-2.38,1.34-4.31,3.13-5.79,5.39c-1.48,2.25-2.56,4.81-3.23,7.68c-0.68,2.87-1.02,5.84-1.02,8.91
		C387.11,296.8,387.45,299.65,388.13,302.43 M374.27,279.32c1.54-4.46,3.76-8.37,6.66-11.69c2.9-3.33,6.45-5.94,10.67-7.83
		c4.21-1.89,8.96-2.84,14.24-2.84c5.34,0,10.1,0.95,14.29,2.84c4.18,1.89,7.72,4.51,10.62,7.83c2.89,3.33,5.12,7.23,6.66,11.69
		c1.55,4.47,2.32,9.32,2.32,14.54c0,5.09-0.77,9.84-2.32,14.25c-1.54,4.4-3.77,8.24-6.66,11.5c-2.9,3.26-6.44,5.83-10.62,7.68
		c-4.19,1.86-8.95,2.79-14.29,2.79c-5.28,0-10.03-0.93-14.24-2.79c-4.22-1.86-7.77-4.42-10.67-7.68c-2.9-3.26-5.12-7.1-6.66-11.5
		c-1.54-4.41-2.32-9.16-2.32-14.25C371.95,288.65,372.72,283.8,374.27,279.32 M337.7,316.57c1.48,0,2.89-0.14,4.25-0.44
		c1.35-0.29,2.54-0.78,3.57-1.47c1.03-0.69,1.85-1.61,2.46-2.79c0.61-1.18,0.92-2.68,0.92-4.51c0-3.59-1-6.15-2.99-7.68
		c-2-1.53-4.63-2.3-7.92-2.3h-16.51v19.18H337.7z M336.83,286.91c2.7,0,4.92-0.65,6.66-1.96c1.74-1.3,2.61-3.43,2.61-6.36
		c0-1.63-0.29-2.97-0.87-4.01c-0.58-1.04-1.35-1.86-2.32-2.45c-0.96-0.59-2.07-0.99-3.33-1.22c-1.25-0.23-2.56-0.34-3.91-0.34
		h-14.19v16.34H336.83z M338.76,258.62c3.28,0,6.27,0.29,8.98,0.88c2.7,0.59,5.02,1.55,6.95,2.89c1.93,1.34,3.43,3.12,4.49,5.34
		c1.06,2.22,1.59,4.96,1.59,8.22c0,3.52-0.79,6.46-2.37,8.81c-1.57,2.34-3.91,4.27-7,5.78c4.25,1.24,7.42,3.41,9.51,6.51
		c2.09,3.1,3.14,6.84,3.14,11.21c0,3.52-0.68,6.58-2.03,9.15c-1.35,2.58-3.17,4.69-5.46,6.32c-2.29,1.63-4.89,2.84-7.82,3.62
		c-2.93,0.78-5.93,1.18-9.03,1.18h-33.4v-69.89H338.76z M255.83,301.6l8.98-25.75H265l8.69,25.75H255.83z M258.63,246.98
		c0-1.89,0.55-3.51,1.64-4.85c1.09-1.33,2.57-2,4.44-2c1.87,0,3.36,0.67,4.49,2c1.12,1.34,1.69,2.96,1.69,4.85
		c0,1.89-0.57,3.51-1.69,4.85c-1.13,1.34-2.62,2.01-4.49,2.01c-1.87,0-3.35-0.67-4.44-2.01
		C259.18,250.48,258.63,248.87,258.63,246.98 M272.83,258.62h-5.5c0.7-0.15,1.38-0.35,2.03-0.64c1.41-0.62,2.67-1.47,3.77-2.55
		c1.09-1.08,1.95-2.35,2.56-3.82c0.61-1.46,0.92-3.02,0.92-4.65c0-1.7-0.31-3.26-0.92-4.7c-0.61-1.43-1.47-2.69-2.56-3.77
		c-1.1-1.08-2.35-1.93-3.77-2.54c-1.42-0.62-2.96-0.93-4.63-0.93c-1.61,0-3.14,0.31-4.59,0.93c-1.45,0.62-2.7,1.47-3.77,2.54
		c-1.06,1.08-1.9,2.33-2.51,3.77c-0.61,1.44-0.92,3-0.92,4.7c0,1.63,0.31,3.18,0.92,4.65c0.61,1.47,1.45,2.74,2.51,3.82
		c1.06,1.08,2.32,1.93,3.77,2.55c0.66,0.28,1.34,0.48,2.04,0.64h-4.88l-26.07,69.89h15.25l5.41-15.56h25.78l5.21,15.56h15.74
		L272.83,258.62z M569.81,200.5v-43.47h-15.16v43.47c0,5.22-1.03,9.05-3.09,11.5c-2.06,2.45-5.79,3.67-11.2,3.67
		c-3.09,0-5.55-0.44-7.39-1.32c-1.83-0.88-3.27-2.03-4.3-3.43c-1.03-1.4-1.71-3.02-2.03-4.85c-0.32-1.83-0.48-3.68-0.48-5.57v-43.47
		h-15.16v43.47c0,9.52,2.56,16.57,7.68,21.14c5.12,4.57,12.34,6.86,21.68,6.86c9.2,0,16.41-2.3,21.63-6.91
		C567.2,216.99,569.81,209.96,569.81,200.5 M441.59,157.04v69.89h15.16v-22.52l8.69-8.91l20.76,31.42h19.02l-29.54-42.28
		l26.93-27.61h-18.92l-26.93,28.98v-28.98H441.59z M387.69,188.66v-19.68h16.61c3.48,0,6.08,0.77,7.82,2.3
		c1.74,1.53,2.61,4,2.61,7.39c0,3.52-0.87,6.07-2.61,7.64c-1.74,1.56-4.34,2.35-7.82,2.35H387.69z M372.53,157.04v69.89h15.16
		v-27.31h15.16c3.8,0,6.54,0.85,8.21,2.55c1.67,1.7,2.76,4.37,3.28,8.02c0.39,2.81,0.68,5.75,0.87,8.81
		c0.19,3.07,0.71,5.72,1.54,7.93h15.16c-0.71-0.98-1.24-2.17-1.59-3.58c-0.35-1.4-0.61-2.89-0.77-4.45c-0.16-1.57-0.28-3.1-0.34-4.6
		c-0.06-1.51-0.13-2.81-0.19-3.92c-0.13-1.76-0.37-3.52-0.73-5.28c-0.35-1.76-0.92-3.38-1.69-4.85c-0.77-1.46-1.77-2.74-2.99-3.81
		c-1.22-1.08-2.77-1.88-4.63-2.4v-0.19c3.86-1.57,6.64-3.85,8.35-6.85c1.7-3,2.56-6.56,2.56-10.67c0-2.67-0.46-5.17-1.4-7.49
		c-0.93-2.31-2.29-4.36-4.05-6.11c-1.77-1.76-3.9-3.15-6.38-4.16c-2.48-1.01-5.26-1.52-8.35-1.52H372.53z M360.62,200.5v-43.47
		h-15.16v43.47c0,5.22-1.03,9.05-3.09,11.5c-2.06,2.45-5.79,3.67-11.2,3.67c-3.09,0-5.55-0.44-7.39-1.32
		c-1.83-0.88-3.27-2.03-4.3-3.43c-1.03-1.4-1.71-3.02-2.03-4.85c-0.32-1.83-0.48-3.68-0.48-5.57v-43.47h-15.16v43.47
		c0,9.52,2.56,16.57,7.67,21.14c5.12,4.57,12.35,6.86,21.68,6.86c9.2,0,16.41-2.3,21.63-6.91
		C358.01,216.99,360.62,209.96,360.62,200.5 M257.72,169.96v56.97h15.16v-56.97h20.66v-12.92h-56.48v12.92H257.72z M190.62,306.23
		c0,16.86-13.53,30.58-30.16,30.58h-26.1c-7.17,0-13.59,2.9-17.33,7.26c-3.74-4.35-10.16-7.25-17.33-7.25h-26.1
		c-16.63,0-30.16-13.72-30.16-30.58V159.31c0-1.23,0.99-2.23,2.2-2.23h71.41v0h71.39c1.21,0,2.2,1,2.2,2.23V306.23z M188.42,149.9
		h-71.41v0H45.63c-5.13,0-9.28,4.21-9.28,9.41v146.92c0,20.86,16.67,37.76,37.25,37.76h26.1c3.5,0,6.78,0.98,9.27,2.54
		c1.91,1.14,3.6,2.64,4.97,4.4c0.79,1.01,1.96,1.51,3.11,1.48v0c1.14,0.03,2.31-0.47,3.09-1.48c1.37-1.76,3.05-3.26,4.97-4.4
		c2.48-1.56,5.77-2.54,9.26-2.54h26.1c20.57,0,37.25-16.91,37.25-37.76V159.31C197.7,154.11,193.55,149.9,188.42,149.9
		 M180.42,247.75c-0.95,1.4-3.51,4.24-4.1,4.97c-1.8,2.22-1.34,3.47-0.93,3.97c1.05,1.26,2.76,0.19,2.76,0.19s-0.31,1.03-1.39,1.48
		c-1.8,0.75-2.8-0.14-3.43-0.81c-1.25-1.31-0.37-3.31,0.11-4.07c0.48-0.76,1.06-1.82,1.38-2.38c1.02-1.77,0.22-3.9-0.76-4.79
		c-1.74-1.59-3.66-0.3-4.62,1.25c-1.41,2.27-2.11,5.32-2.11,5.32s-0.21-0.08-0.41-0.14c-0.22-0.07-0.44-0.11-0.44-0.11
		s0.39-1.9,0.74-3.28c0.44-1.76,1.33-4.28,1.94-5.56c1.79-3.75,4.42-4.82,5.56-5.31c2.46-1.06,4.76,0.34,5.72,1.8
		C182.47,243.36,181.18,246.65,180.42,247.75 M173.92,233.23c0,0-0.25,0.87-0.46,1.89c-0.21,1.02-0.33,2.22-0.33,2.22
		s-1.15,0.48-2.1,1.36c-0.96,0.9-2.08,2.49-2.08,2.49s0.49-1.71,0.72-3.18c0.21-1.29,0.2-3.19,0.2-3.19s0.52-0.63,1.7-1.15
		C172.79,233.12,173.92,233.23,173.92,233.23 M166.89,244.39c-0.35,1.59-1.76,8.18-1.76,8.18s-1.4-6.59-1.75-8.18
		c-1.42-6.35-1.45-9.46-0.8-12.77c0.48-2.41,2.55-5.17,2.55-5.17s2.08,2.76,2.55,5.17C168.33,234.93,168.31,238.04,166.89,244.39
		 M166.38,292.43c0,0-0.27,0.69-3.67,1.56c-3.66,0.94-4.85-3-5.16-3.9c-1.33-3.89-3.93-4.29-6.14-5.1c-2.2-0.8-8.78-2.63-9.92-2.96
		c-3.45-0.99-3.11-2-2.79-2.54c0.61-1.02,3.1,0.13,4.73,0.67c2.55,0.84,4.26,1.13,5.59,0.97c2.51-0.31,2.86-3.24,2.21-5.26
		c-0.52-1.61-16.59-46.68-16.59-46.68h4.45c0,0,1.65-6.73,2.7-9.54c2.67-7.15,5.22-9.84,6.08-10.4c4.13-2.72,5.37,0.01,5.61,0.75
		c0.85,2.61-0.74,3.98-0.74,3.98s0.72,0.3,1.44,0.32c1.25,0.04,2.26-0.58,3.12-1.52c2.24-2.44,0.21-5.54,0.21-5.54
		s3.02-0.5,4.3-4.71c1.58-5.18-3.93-8.97-3.93-8.97s0.24,0.36-0.17,2.87c-0.41,2.51-4.69,3.61-6.73,4.13
		c-4.75,1.2-8.19,4.75-10.22,7.12c-2.43,2.87-4.44,9.47-4.44,9.47h-19.31h-0.01H97.71c0,0-2-6.6-4.44-9.47
		c-2.02-2.38-5.47-5.93-10.22-7.12c-2.04-0.52-6.32-1.62-6.73-4.13c-0.41-2.51-0.17-2.87-0.17-2.87s-5.5,3.79-3.92,8.97
		c1.28,4.21,4.3,4.71,4.3,4.71s-2.03,3.1,0.21,5.54c0.86,0.94,1.87,1.56,3.12,1.52c0.72-0.02,1.44-0.32,1.44-0.32
		s-1.58-1.37-0.74-3.98c0.24-0.74,1.48-3.47,5.62-0.75c0.86,0.56,3.41,3.25,6.08,10.4c1.05,2.82,2.7,9.54,2.7,9.54h4.45
		c0,0-16.07,45.07-16.59,46.68c-0.66,2.01-0.3,4.95,2.21,5.26c1.33,0.16,3.04-0.14,5.59-0.97c1.63-0.54,4.12-1.69,4.73-0.67
		c0.32,0.54,0.66,1.55-2.79,2.54c-1.14,0.33-7.72,2.16-9.92,2.96c-2.2,0.8-4.8,1.2-6.14,5.1c-0.31,0.9-1.49,4.84-5.15,3.9
		c-3.4-0.87-3.67-1.56-3.67-1.56s2.11,5.33,5.27,6.96c6.04,3.1,9.86-1.89,9.86-1.89s1.58,1.81,4.82,1.07c1.22-0.28,2.35-1.08,3.03-2
		c0.35-0.47,0.62-1.09,0.62-1.09s-3.33,0.06-3.99-1.62c-0.36-0.91-0.32-2.21,2.93-4.33c1.04-0.68,6.02-3.49,8.08-4.9
		c2.12-1.45,4.96-3.62,3.62-6.33c-1.07-2.15-3.23-2.97-3.23-2.97l8.27-31.84l10.06,16.75h0.01l10.06-16.75l8.27,31.84
		c0,0-2.16,0.82-3.23,2.97c-1.34,2.7,1.51,4.87,3.62,6.33c2.06,1.41,7.04,4.23,8.08,4.9c3.26,2.12,3.3,3.42,2.94,4.33
		c-0.66,1.68-3.99,1.62-3.99,1.62s0.27,0.62,0.62,1.09c0.68,0.92,1.81,1.73,3.03,2c3.24,0.75,4.82-1.07,4.82-1.07
		s3.82,4.99,9.86,1.89C164.27,297.76,166.38,292.43,166.38,292.43 M126.81,227.81l-9.78,17.33h-0.01l-9.78-17.33h9.78h0.01H126.81z
		 M132.31,183.97c-0.95,1.4-3.51,4.24-4.11,4.97c-1.8,2.23-1.34,3.47-0.92,3.97c1.05,1.26,2.76,0.19,2.76,0.19s-0.31,1.03-1.39,1.48
		c-1.8,0.75-2.8-0.14-3.43-0.81c-1.25-1.31-0.37-3.31,0.11-4.07c0.49-0.77,1.06-1.82,1.38-2.38c1.02-1.77,0.22-3.9-0.75-4.8
		c-1.74-1.59-3.66-0.3-4.62,1.26c-1.41,2.27-2.11,5.31-2.11,5.31s-0.21-0.08-0.41-0.14c-0.22-0.07-0.44-0.11-0.44-0.11
		s0.39-1.9,0.74-3.28c0.44-1.76,1.33-4.28,1.94-5.56c1.79-3.75,4.43-4.82,5.56-5.31c2.46-1.06,4.76,0.34,5.72,1.8
		C134.36,179.58,133.07,182.87,132.31,183.97 M118.78,180.61c-0.35,1.59-1.76,8.18-1.76,8.18s-1.4-6.59-1.76-8.18
		c-1.42-6.35-1.45-9.46-0.8-12.77c0.47-2.4,2.55-5.17,2.55-5.17s2.08,2.76,2.55,5.17C120.22,171.15,120.2,174.26,118.78,180.61
		 M112.77,203.68c-1.27,1.54-2.29,1.79-2.98,1.79c-1.17,0-2.28-1.49-2.6-1.92c-0.32-0.42-1.07-1.96-2.05-2.11
		c-0.92-0.14-1.35,0.84-1.35,0.84s-0.17-0.55-0.19-0.82c-0.08-0.77,0.34-1.15,0.76-1.32c1.31-0.53,3.07,1.02,3.38,1.26
		c1.78,1.41,3.29,0.64,4.43-0.18c2.12-1.52,2.15-4.39,2.15-4.39l0.83,0.23c0,0,0.11,1.36-0.18,2.53
		C114.47,201.62,113.17,203.21,112.77,203.68 M120.05,204.1c0,0-0.39,1.62-1.06,2.83c-0.81,1.45-1.96,2.79-1.96,2.79
		s-1.15-1.34-1.96-2.79c-0.68-1.21-1.06-2.83-1.06-2.83s0.95-0.99,1.65-2.53c1-2.21,0.73-4.41,0.73-4.41s0.19,0.01,0.34,0.01
		c0.15,0,0.32,0.01,0.32,0.01s0.17-0.01,0.32-0.01c0.15,0,0.33-0.01,0.33-0.01s-0.27,2.2,0.73,4.41
		C119.1,203.11,120.05,204.1,120.05,204.1 M117.02,195.55c-2.2,0-3.97-1.24-3.97-2.76s1.78-2.76,3.97-2.76
		c2.19,0,3.98,1.23,3.98,2.76S119.22,195.55,117.02,195.55 M121.88,201.24c1.14,0.82,2.66,1.59,4.43,0.18
		c0.31-0.24,2.06-1.79,3.37-1.26c0.41,0.16,0.83,0.55,0.76,1.32c-0.02,0.27-0.2,0.82-0.2,0.82s-0.43-0.98-1.35-0.84
		c-0.98,0.15-1.73,1.68-2.05,2.11c-0.32,0.43-1.43,1.92-2.6,1.92c-0.69,0-1.7-0.25-2.98-1.79c-0.39-0.48-1.69-2.07-2.19-4.09
		c-0.29-1.17-0.18-2.53-0.18-2.53l0.83-0.23C119.73,196.84,119.76,199.71,121.88,201.24 M107.44,174.69
		c1.14,0.49,3.77,1.56,5.56,5.31c0.61,1.28,1.51,3.8,1.95,5.56c0.34,1.38,0.73,3.28,0.73,3.28s-0.22,0.04-0.44,0.11
		c-0.2,0.06-0.41,0.14-0.41,0.14s-0.7-3.04-2.11-5.31c-0.96-1.55-2.87-2.84-4.62-1.26c-0.97,0.89-1.77,3.02-0.75,4.8
		c0.32,0.56,0.89,1.62,1.38,2.38c0.49,0.76,1.36,2.75,0.11,4.07c-0.63,0.66-1.63,1.55-3.43,0.81c-1.09-0.45-1.39-1.48-1.39-1.48
		s1.71,1.07,2.76-0.19c0.42-0.5,0.88-1.75-0.93-3.97c-0.59-0.73-3.15-3.57-4.1-4.97c-0.75-1.1-2.05-4.39-0.02-7.48
		C102.67,175.03,104.97,173.63,107.44,174.69 M70.67,244.39c-0.35,1.59-1.76,8.18-1.76,8.18s-1.4-6.59-1.75-8.18
		c-1.42-6.35-1.45-9.46-0.79-12.77c0.47-2.41,2.55-5.17,2.55-5.17s2.08,2.76,2.55,5.17C72.11,234.93,72.09,238.04,70.67,244.39
		 M65.1,241.19c0,0-1.12-1.59-2.08-2.49c-0.94-0.89-2.09-1.36-2.09-1.36s-0.13-1.2-0.34-2.22c-0.21-1.02-0.47-1.89-0.47-1.89
		s1.13-0.11,2.36,0.43c1.18,0.52,1.7,1.15,1.7,1.15s0,1.9,0.2,3.19C64.61,239.48,65.1,241.19,65.1,241.19 M59.33,238.47
		c1.14,0.49,3.77,1.56,5.56,5.31c0.61,1.28,1.51,3.8,1.94,5.56c0.34,1.38,0.74,3.28,0.74,3.28s-0.22,0.05-0.44,0.11
		c-0.2,0.06-0.41,0.14-0.41,0.14s-0.7-3.05-2.11-5.32c-0.96-1.55-2.88-2.84-4.62-1.25c-0.98,0.89-1.78,3.02-0.76,4.79
		c0.32,0.56,0.89,1.62,1.38,2.38c0.49,0.76,1.36,2.76,0.11,4.07c-0.64,0.66-1.64,1.55-3.43,0.81c-1.09-0.45-1.4-1.48-1.4-1.48
		s1.71,1.06,2.76-0.19c0.42-0.5,0.88-1.75-0.92-3.97c-0.59-0.73-3.15-3.58-4.11-4.97c-0.75-1.1-2.04-4.39-0.02-7.48
		C54.56,238.81,56.87,237.41,59.33,238.47 M55.49,265.25c-0.07-0.78,0.34-1.15,0.76-1.32c1.31-0.53,3.07,1.02,3.37,1.26
		c1.78,1.42,3.3,0.64,4.43-0.17c2.13-1.53,2.15-4.4,2.15-4.4l0.83,0.23c0,0,0.11,1.36-0.18,2.53c-0.5,2.02-1.8,3.61-2.2,4.09
		c-1.27,1.54-2.29,1.79-2.98,1.79c-1.17,0-2.28-1.49-2.6-1.92c-0.32-0.42-1.08-1.96-2.05-2.11c-0.92-0.14-1.36,0.84-1.36,0.84
		S55.52,265.52,55.49,265.25 M82.34,265.25c-0.03,0.27-0.19,0.82-0.19,0.82s-0.44-0.98-1.35-0.84c-0.98,0.15-1.73,1.68-2.05,2.11
		c-0.32,0.43-1.43,1.92-2.6,1.92c-0.69,0-1.7-0.25-2.98-1.79c-0.39-0.48-1.69-2.07-2.19-4.09c-0.29-1.17-0.18-2.53-0.18-2.53
		l0.83-0.23c0,0,0.02,2.87,2.15,4.4c1.14,0.82,2.66,1.59,4.43,0.17c0.31-0.24,2.06-1.79,3.38-1.26
		C82,264.1,82.41,264.47,82.34,265.25 M72.89,256.57c0,1.52-1.78,2.75-3.98,2.75c-2.19,0-3.97-1.23-3.97-2.75
		c0-1.53,1.78-2.76,3.97-2.76C71.11,253.81,72.89,255.04,72.89,256.57 M77.24,235.12c-0.21,1.02-0.34,2.22-0.34,2.22
		s-1.15,0.48-2.09,1.36c-0.96,0.9-2.08,2.49-2.08,2.49s0.49-1.71,0.72-3.18c0.2-1.29,0.2-3.19,0.2-3.19s0.52-0.63,1.7-1.15
		c1.23-0.54,2.35-0.43,2.35-0.43S77.44,234.11,77.24,235.12 M78.5,238.47c2.46-1.06,4.76,0.34,5.72,1.8
		c2.03,3.09,0.74,6.38-0.01,7.48c-0.95,1.4-3.51,4.24-4.11,4.97c-1.8,2.22-1.34,3.47-0.92,3.97c1.05,1.26,2.76,0.19,2.76,0.19
		s-0.31,1.03-1.4,1.48c-1.8,0.75-2.8-0.14-3.43-0.81c-1.25-1.31-0.37-3.31,0.11-4.07c0.49-0.76,1.06-1.82,1.38-2.38
		c1.01-1.77,0.22-3.9-0.76-4.79c-1.74-1.59-3.65-0.3-4.61,1.25c-1.41,2.27-2.11,5.32-2.11,5.32s-0.21-0.08-0.41-0.14
		c-0.23-0.07-0.44-0.11-0.44-0.11s0.39-1.9,0.74-3.28c0.44-1.76,1.33-4.28,1.94-5.56C74.73,240.03,77.36,238.96,78.5,238.47
		 M65.89,267.88c0,0,0.95-1,1.65-2.53c1-2.22,0.73-4.41,0.73-4.41s0.19,0.01,0.33,0.01c0.15,0,0.32,0.01,0.32,0.01
		s0.17-0.01,0.32-0.01c0.14,0,0.33-0.01,0.33-0.01s-0.27,2.2,0.73,4.41c0.7,1.54,1.65,2.53,1.65,2.53s-0.38,1.62-1.06,2.84
		c-0.82,1.45-1.97,2.79-1.97,2.79s-1.15-1.34-1.96-2.79C66.27,269.51,65.89,267.88,65.89,267.88 M111.13,293.72
		c-0.94-0.88-2.1-1.36-2.1-1.36s-0.13-1.2-0.34-2.22c-0.21-1.01-0.46-1.89-0.46-1.89s1.13-0.11,2.35,0.43
		c1.18,0.52,1.7,1.15,1.7,1.15s-0.01,1.9,0.2,3.19c0.23,1.47,0.73,3.18,0.73,3.18S112.09,294.63,111.13,293.72 M101.72,295.29
		c0.96-1.46,3.26-2.86,5.72-1.8c1.14,0.49,3.77,1.56,5.56,5.31c0.61,1.28,1.51,3.8,1.95,5.56c0.34,1.38,0.73,3.28,0.73,3.28
		s-0.22,0.05-0.44,0.11c-0.2,0.06-0.41,0.15-0.41,0.15s-0.7-3.05-2.11-5.32c-0.96-1.55-2.87-2.84-4.62-1.25
		c-0.97,0.89-1.77,3.03-0.75,4.8c0.32,0.56,0.89,1.62,1.38,2.38c0.49,0.76,1.36,2.76,0.11,4.07c-0.63,0.66-1.63,1.55-3.43,0.81
		c-1.09-0.45-1.39-1.48-1.39-1.48s1.71,1.07,2.76-0.19c0.42-0.5,0.88-1.75-0.93-3.97c-0.59-0.73-3.15-3.57-4.1-4.97
		C100.98,301.67,99.69,298.38,101.72,295.29 M103.6,320.27c-0.08-0.77,0.34-1.15,0.76-1.32c1.31-0.52,3.07,1.02,3.38,1.26
		c1.78,1.42,3.29,0.64,4.43-0.17c2.12-1.53,2.15-4.4,2.15-4.4l0.83,0.23c0,0,0.11,1.36-0.18,2.53c-0.5,2.02-1.8,3.61-2.19,4.09
		c-1.27,1.54-2.29,1.79-2.98,1.79c-1.17,0-2.28-1.49-2.6-1.91c-0.32-0.43-1.07-1.96-2.05-2.11c-0.92-0.14-1.35,0.84-1.35,0.84
		S103.62,320.55,103.6,320.27 M114,322.9c0,0,0.95-0.99,1.65-2.53c1-2.22,0.73-4.42,0.73-4.42s0.19,0.01,0.34,0.01
		c0.15,0,0.32,0.01,0.32,0.01s0.17-0.01,0.32-0.01c0.15,0,0.33-0.01,0.33-0.01s-0.27,2.2,0.73,4.42c0.7,1.54,1.65,2.53,1.65,2.53
		s-0.39,1.63-1.06,2.83c-0.81,1.46-1.96,2.8-1.96,2.8s-1.15-1.34-1.96-2.8C114.38,324.53,114,322.9,114,322.9 M121.28,322.49
		c-0.4-0.48-1.69-2.07-2.19-4.09c-0.29-1.17-0.18-2.53-0.18-2.53l0.83-0.23c0,0,0.02,2.87,2.15,4.4c1.14,0.82,2.66,1.59,4.43,0.17
		c0.31-0.24,2.06-1.79,3.37-1.26c0.41,0.17,0.83,0.55,0.76,1.32c-0.02,0.27-0.2,0.82-0.2,0.82s-0.43-0.98-1.35-0.84
		c-0.98,0.15-1.73,1.68-2.05,2.11c-0.32,0.42-1.43,1.91-2.6,1.91C123.56,324.27,122.55,324.03,121.28,322.49 M117.02,308.83
		c2.19,0,3.98,1.24,3.98,2.76c0,1.52-1.78,2.76-3.98,2.76c-2.2,0-3.97-1.23-3.97-2.76C113.05,310.07,114.83,308.83,117.02,308.83
		 M117.02,307.59c0,0-1.4-6.59-1.76-8.18c-1.42-6.35-1.45-9.46-0.8-12.77c0.47-2.41,2.55-5.17,2.55-5.17s2.08,2.76,2.55,5.17
		c0.65,3.31,0.62,6.41-0.8,12.77C118.42,301,117.02,307.59,117.02,307.59 M125.34,290.14c-0.21,1.02-0.34,2.22-0.34,2.22
		s-1.16,0.48-2.1,1.36c-0.95,0.9-2.08,2.49-2.08,2.49s0.49-1.71,0.73-3.18c0.2-1.3,0.2-3.19,0.2-3.19s0.51-0.63,1.69-1.15
		c1.23-0.54,2.35-0.43,2.35-0.43S125.55,289.13,125.34,290.14 M132.31,302.77c-0.95,1.4-3.51,4.24-4.11,4.97
		c-1.8,2.22-1.34,3.47-0.92,3.97c1.05,1.26,2.76,0.19,2.76,0.19s-0.31,1.03-1.39,1.48c-1.8,0.75-2.8-0.15-3.43-0.81
		c-1.25-1.31-0.37-3.31,0.11-4.07c0.49-0.76,1.06-1.82,1.38-2.38c1.02-1.77,0.22-3.91-0.75-4.8c-1.74-1.59-3.66-0.3-4.62,1.25
		c-1.41,2.28-2.11,5.32-2.11,5.32s-0.21-0.09-0.41-0.15c-0.22-0.07-0.44-0.11-0.44-0.11s0.39-1.9,0.74-3.28
		c0.44-1.76,1.33-4.28,1.94-5.56c1.79-3.75,4.43-4.82,5.56-5.31c2.46-1.06,4.76,0.34,5.72,1.8
		C134.36,298.38,133.07,301.67,132.31,302.77 M167.1,270.72c-0.82,1.45-1.96,2.79-1.96,2.79s-1.15-1.34-1.96-2.79
		c-0.68-1.21-1.06-2.84-1.06-2.84s0.95-1,1.65-2.53c1.01-2.22,0.73-4.41,0.73-4.41s0.19,0.01,0.33,0.01c0.15,0,0.32,0.01,0.32,0.01
		s0.17-0.01,0.32-0.01c0.15,0,0.34-0.01,0.34-0.01s-0.27,2.2,0.73,4.41c0.7,1.54,1.65,2.53,1.65,2.53S167.78,269.51,167.1,270.72
		 M165.13,253.81c2.19,0,3.98,1.23,3.98,2.76c0,1.52-1.78,2.75-3.98,2.75c-2.2,0-3.98-1.23-3.98-2.75
		C161.16,255.04,162.94,253.81,165.13,253.81 M152.47,263.93c1.31-0.53,3.07,1.02,3.38,1.26c1.77,1.42,3.29,0.64,4.43-0.17
		c2.12-1.53,2.15-4.4,2.15-4.4l0.83,0.23c0,0,0.11,1.36-0.18,2.53c-0.5,2.02-1.8,3.61-2.19,4.09c-1.27,1.54-2.29,1.79-2.98,1.79
		c-1.17,0-2.28-1.49-2.6-1.92c-0.32-0.42-1.07-1.96-2.05-2.11c-0.91-0.14-1.35,0.84-1.35,0.84s-0.17-0.55-0.19-0.82
		C151.63,264.47,152.05,264.1,152.47,263.93 M159.24,238.7c-0.95-0.89-2.1-1.36-2.1-1.36s-0.12-1.2-0.34-2.22
		c-0.21-1.02-0.46-1.89-0.46-1.89s1.12-0.11,2.35,0.43c1.18,0.52,1.7,1.15,1.7,1.15s0,1.9,0.2,3.19c0.23,1.47,0.72,3.18,0.72,3.18
		S160.2,239.6,159.24,238.7 M163.05,249.34c0.34,1.38,0.74,3.28,0.74,3.28s-0.22,0.05-0.44,0.11c-0.2,0.06-0.41,0.14-0.41,0.14
		s-0.7-3.04-2.11-5.32c-0.96-1.55-2.87-2.84-4.62-1.25c-0.97,0.89-1.77,3.02-0.75,4.79c0.32,0.56,0.89,1.62,1.38,2.38
		c0.49,0.76,1.36,2.76,0.11,4.07c-0.63,0.66-1.63,1.55-3.43,0.81c-1.09-0.45-1.39-1.48-1.39-1.48s1.71,1.06,2.76-0.19
		c0.42-0.5,0.88-1.75-0.92-3.97c-0.59-0.73-3.15-3.58-4.1-4.97c-0.76-1.1-2.05-4.39-0.02-7.48c0.96-1.46,3.25-2.86,5.72-1.8
		c1.14,0.49,3.77,1.56,5.56,5.31C161.72,245.06,162.61,247.58,163.05,249.34 M169.38,267.46c-0.4-0.48-1.69-2.07-2.2-4.09
		c-0.29-1.17-0.18-2.53-0.18-2.53l0.83-0.23c0,0,0.02,2.87,2.14,4.4c1.14,0.82,2.66,1.59,4.44,0.17c0.31-0.24,2.06-1.79,3.37-1.26
		c0.41,0.17,0.83,0.54,0.76,1.32c-0.02,0.27-0.19,0.82-0.19,0.82s-0.44-0.98-1.35-0.84c-0.97,0.15-1.73,1.68-2.05,2.11
		c-0.32,0.43-1.43,1.92-2.6,1.92C171.67,269.25,170.66,269,169.38,267.46 M125.81,169.45c0,0-0.25,0.87-0.46,1.89
		c-0.21,1.02-0.34,2.21-0.34,2.21s-1.16,0.48-2.1,1.37c-0.95,0.9-2.08,2.49-2.08,2.49s0.49-1.71,0.73-3.18
		c0.2-1.3,0.2-3.19,0.2-3.19s0.52-0.63,1.69-1.15C124.68,169.34,125.81,169.45,125.81,169.45 M113.22,177.41
		c0,0-1.12-1.59-2.08-2.49c-0.94-0.89-2.1-1.36-2.1-1.36s-0.13-1.2-0.33-2.22c-0.21-1.02-0.46-1.89-0.46-1.89s1.13-0.11,2.35,0.43
		c1.18,0.52,1.7,1.15,1.7,1.15s-0.01,1.9,0.2,3.19C112.72,175.7,113.22,177.41,113.22,177.41 M193.74,99.23
		c0.54-0.16,1.09-0.15,1.6,0.06c1.72,0.71,2.37,3.44,1.47,6.09c-0.68,1.99-2.05,3.38-3.42,3.64l-7.1,15.85h0.13
		c3.45,0,6.25,2.83,6.26,6.33v-0.02v0.04v-0.02c-0.01,3.5-2.81,6.33-6.26,6.33H47.63c-3.45,0-6.25-2.83-6.26-6.33
		c0,0.01,0,0.01,0,0.02v-0.04c0,0.01,0,0.01,0,0.02c0.01-3.5,2.81-6.33,6.26-6.33h0.14l-7.11-15.85c-1.36-0.26-2.73-1.65-3.41-3.64
		c-0.91-2.65-0.25-5.38,1.47-6.09c0.4-0.17,0.82-0.21,1.24-0.14c-0.58-14.07-1.08-19.96-8.66-22.62c6.62-4.24,12.55-3.18,16.03,5.3
		c1.05-2.12,1.39-3.18,3.49-4.24c1.74,7.77-0.35,13.78-5.23,20.14c5.23-5.3,12.2-7.07,18.12-7.07c0,1.06-0.35,2.47-1.74,3.53
		c4.53,3.53,6.27,5.3,8.02,8.83c-1.74,3.53-3.49,5.3-8.02,8.83c1.39,1.06,1.74,2.47,1.74,3.53c-5.92,0-12.89-1.77-18.12-7.07
		C48.02,114.35,56.03,120,59.52,120c2.95,0,10.88-4.55,16.42-12.36c-1.7-0.97-2.85-2.83-2.85-4.95c0-3.35,2.86-6.02,6.24-5.65
		c2.6,0.29,4.7,2.45,4.94,5.09c0.22,2.36-0.98,4.45-2.83,5.51C86.98,115.45,94.91,120,97.86,120c3.49,0,12.2-4.59,13.94-11.66
		c-5.23,5.3-12.2,7.07-18.12,7.07c0-1.06,0.35-2.47,1.74-3.53c-4.53-3.53-6.27-5.3-8.02-8.83c1.74-3.53,3.49-5.3,8.02-8.83
		c-1.39-1.06-1.74-2.47-1.74-3.53c5.93,0,12.9,1.77,18.12,7.07c-5.23-5.3-6.97-12.37-6.97-18.37c1.04,0,2.44,0.35,3.48,1.77
		c3.49-4.59,5.23-6.36,8.71-8.13c3.48,1.77,5.23,3.53,8.71,8.13c1.05-1.41,2.44-1.77,3.49-1.77c0,6.01-1.74,13.07-6.97,18.37
		c5.23-5.3,12.2-7.07,18.12-7.07c0,1.06-0.35,2.47-1.74,3.53c4.53,3.53,6.27,5.3,8.02,8.83c-1.74,3.53-3.49,5.3-8.02,8.83
		c1.39,1.06,1.74,2.47,1.74,3.53c-5.93,0-12.9-1.77-18.12-7.07C124,115.4,132.71,120,136.19,120c2.95,0,10.88-4.55,16.42-12.36
		c-1.71-0.97-2.85-2.83-2.85-4.95c0-3.35,2.86-6.02,6.24-5.65c2.6,0.29,4.7,2.45,4.95,5.09c0.22,2.36-0.98,4.45-2.83,5.51
		c5.54,7.81,13.47,12.36,16.42,12.36c3.49,0,11.5-5.65,13.94-11.66c-5.23,5.3-12.2,7.07-18.12,7.07c0-1.06,0.35-2.47,1.74-3.53
		c-4.53-3.53-6.27-5.3-8.02-8.83c1.74-3.53,3.48-5.3,8.02-8.83c-1.39-1.06-1.74-2.47-1.74-3.53c5.92,0,12.89,1.77,18.12,7.07
		c-4.88-6.36-6.97-12.37-5.23-20.14c2.09,1.06,2.44,2.12,3.49,4.24c3.49-8.48,9.41-9.54,16.03-5.3
		C195.16,79.2,193.93,85.1,193.74,99.23 M205.86,71.55c-3.45-2.21-6.86-3.33-10.12-3.33c-2.45,0-6.31,0.67-9.8,4.16
		c-0.03-0.02-0.07-0.04-0.1-0.05c-1.6-0.81-3.47-0.83-5.09-0.06c-1.61,0.77-2.79,2.26-3.18,4.02c-0.71,3.17-0.93,6.17-0.64,9.11
		c-2.12-0.41-4.33-0.62-6.59-0.62c-3.21,0-5.81,2.64-5.81,5.89c0,0.69,0.07,1.36,0.19,2.02c-0.57,0.51-1.1,1.02-1.59,1.53
		c-1.75-1.65-4.01-2.76-6.51-3.04c-0.42-0.05-0.85-0.07-1.27-0.07c-3,0-5.74,1.18-7.78,3.11c-0.49-0.51-1.02-1.02-1.59-1.53
		c0.13-0.66,0.19-1.33,0.19-2.02c0-3.25-2.6-5.89-5.81-5.89c-1.99,0-3.93,0.16-5.81,0.48c0.31-1.91,0.47-3.88,0.47-5.89
		c0-3.25-2.6-5.89-5.81-5.89c-0.68,0-1.34,0.07-1.99,0.19c-2.28-2.6-4.39-4.3-7.61-5.93c-1.64-0.83-3.56-0.83-5.2,0
		c-3.22,1.63-5.33,3.33-7.61,5.93c-0.65-0.13-1.31-0.19-1.99-0.19c-3.21,0-5.81,2.64-5.81,5.89c0,2.01,0.16,3.98,0.47,5.89
		c-1.88-0.32-3.83-0.48-5.81-0.48c-3.21,0-5.81,2.64-5.81,5.89c0,0.69,0.07,1.36,0.19,2.02c-0.57,0.51-1.1,1.02-1.59,1.53
		c-1.75-1.65-4.01-2.76-6.51-3.04c-0.42-0.05-0.85-0.07-1.27-0.07c-3,0-5.74,1.18-7.78,3.11c-0.49-0.51-1.02-1.02-1.59-1.53
		c0.13-0.66,0.19-1.33,0.19-2.02c0-3.25-2.6-5.89-5.81-5.89c-2.26,0-4.46,0.21-6.59,0.62c0.29-2.93,0.07-5.94-0.64-9.11
		c-0.4-1.76-1.57-3.25-3.18-4.02c-1.61-0.77-3.49-0.75-5.09,0.06c-0.03,0.02-0.07,0.03-0.1,0.05c-3.49-3.49-7.35-4.16-9.8-4.16
		c-3.26,0-6.67,1.12-10.12,3.33c-1.89,1.21-2.93,3.41-2.67,5.66c0.26,2.25,1.76,4.15,3.87,4.89c3.1,1.09,4,2.42,4.58,13.4
		c-2.8,2.67-3.77,7.26-2.21,11.82c0.89,2.61,2.5,4.75,4.49,6.09l3.74,8.35c-2.63,2.2-4.34,5.51-4.43,9.22c0,0.06,0,0.13,0,0.19v0.04
		c0,0.03,0,0.07,0,0.1c0.08,6.68,5.47,12.09,12.07,12.09h138.79c6.6,0,12-5.42,12.07-12.15c0-0.03,0-0.06,0-0.09
		c0-0.03,0-0.07,0-0.1c-0.04-3.75-1.76-7.1-4.43-9.31l3.74-8.35c1.99-1.35,3.6-3.49,4.49-6.1c1.63-4.78,0.49-9.6-2.64-12.2
		c0.45-10.89,2.04-11.98,5.01-13.02c2.11-0.74,3.61-2.64,3.87-4.89C208.79,74.96,207.75,72.76,205.86,71.55"/>
</g>
</svg>
